<?xml version="1.0" encoding="UTF-8" standalone="no"?><!DOCTYPE svg PUBLIC "-//W3C//DTD SVG 1.1//EN" "http://www.w3.org/Graphics/SVG/1.1/DTD/svg11.dtd"><svg width="100%" height="100%" viewBox="0 0 6130 1077" version="1.1" xmlns="http://www.w3.org/2000/svg" xmlns:xlink="http://www.w3.org/1999/xlink" xml:space="preserve" xmlns:serif="http://www.serif.com/" style="fill-rule:evenodd;clip-rule:evenodd;stroke-linejoin:round;stroke-miterlimit:2;"><path d="M328.463,494.005l-167.44,-0c-19.869,-0 -37.237,-5.857 -48.159,-13.387l-8.694,-7.393l-7.701,-10.718l-3.61,-9.373l-1.357,-10.677l0,-36.745l1.357,-10.677l3.61,-9.373l7.701,-10.718l8.694,-7.393c10.922,-7.53 28.29,-13.387 48.159,-13.387l19.01,0l-0,-50.953l-81.029,-0c-28.144,-0 -51.852,-10.794 -63.981,-23.517l-9.915,-14.546l-3.135,-9.33l-1.14,-10.261l0,-48.956l1.14,-10.261l3.135,-9.331l9.915,-14.545c12.129,-12.724 35.837,-23.517 63.981,-23.517l585.077,0c28.144,0 51.851,10.793 63.981,23.517l9.915,14.545l3.135,9.331l1.14,10.261l-0,48.956l-1.14,10.261l-3.135,9.33l-9.915,14.546c-12.13,12.723 -35.837,23.517 -63.981,23.517l-81.029,-0l0,50.953l19.01,0c19.869,0 37.237,5.857 48.159,13.387l8.694,7.393l7.701,10.718l3.609,9.373l1.358,10.677l-0,36.745l-1.358,10.677l-3.609,9.373l-7.701,10.718l-8.694,7.393c-10.922,7.53 -28.29,13.387 -48.159,13.387l-167.44,-0l-0,87.256l105.708,-0c11.891,-0 22.873,6.364 28.785,16.681c5.912,10.318 5.85,23.01 -0.162,33.269l-169.818,289.77c-5.954,10.16 -16.848,16.402 -28.623,16.402c-11.776,-0 -22.669,-6.242 -28.623,-16.402l-169.818,-289.77c-6.013,-10.259 -6.074,-22.951 -0.162,-33.269c5.912,-10.317 16.894,-16.681 28.785,-16.681l107.769,-0l-0,-87.256Z" style="fill:none;stroke:#fff;stroke-width:41.67px;"/><path d="M409.282,836.219l97.799,-166.929c4.628,-7.899 1.972,-18.07 -5.927,-22.698c-7.899,-4.628 -18.07,-1.972 -22.698,5.927l-97.799,166.929c-4.628,7.9 -1.972,18.07 5.927,22.698c7.9,4.628 18.07,1.972 22.698,-5.927Z" style="fill:#fff;"/><g transform="matrix(3.125,0,0,3.125,-20.6139,-1623.34)"><g transform="matrix(279.985,0,0,279.985,446.508,794.575)"><path d="M0.489,-0.28l-0.088,-0.251l-0.088,0.251l0.176,0Zm0.052,0.149l-0.28,0l-0.045,0.131l-0.209,0l0.287,-0.754l0.214,0l0.287,0.754l-0.209,-0l-0.045,-0.131Z" style="fill:#fff;fill-rule:nonzero;"/></g><g transform="matrix(279.985,0,0,279.985,659.017,794.575)"><path d="M0.437,-0.331c-0.006,-0.025 -0.018,-0.046 -0.037,-0.061c-0.019,-0.015 -0.041,-0.023 -0.068,-0.023c-0.028,0 -0.051,0.007 -0.069,0.022c-0.017,0.015 -0.028,0.035 -0.033,0.062l0.207,0Zm-0.212,0.105c-0,0.078 0.037,0.117 0.11,0.117c0.039,0 0.069,-0.016 0.089,-0.048l0.175,0c-0.035,0.117 -0.124,0.176 -0.265,0.176c-0.043,0 -0.083,-0.006 -0.119,-0.019c-0.036,-0.013 -0.067,-0.032 -0.093,-0.056c-0.025,-0.024 -0.045,-0.053 -0.059,-0.086c-0.014,-0.033 -0.021,-0.071 -0.021,-0.112c-0,-0.043 0.007,-0.081 0.02,-0.115c0.013,-0.035 0.032,-0.064 0.057,-0.088c0.025,-0.024 0.054,-0.042 0.089,-0.055c0.035,-0.013 0.075,-0.02 0.119,-0.02c0.043,0 0.082,0.007 0.117,0.02c0.035,0.013 0.064,0.031 0.088,0.056c0.024,0.025 0.042,0.055 0.055,0.091c0.013,0.035 0.019,0.075 0.019,0.12l-0,0.019l-0.381,0Z" style="fill:#fff;fill-rule:nonzero;"/></g><g transform="matrix(279.985,0,0,279.985,828.967,794.575)"><path d="M0.062,-0.513l0.181,0l0,0.084c0.019,-0.031 0.043,-0.054 0.071,-0.071c0.028,-0.016 0.061,-0.024 0.098,-0.024l0.015,0c0.006,0 0.013,0.001 0.02,0.002l-0,0.173c-0.024,-0.012 -0.05,-0.018 -0.078,-0.018c-0.042,0 -0.074,0.013 -0.095,0.037c-0.021,0.026 -0.031,0.062 -0.031,0.11l-0,0.22l-0.181,0l-0,-0.513Z" style="fill:#fff;fill-rule:nonzero;"/></g><g transform="matrix(279.985,0,0,279.985,949.361,794.575)"><path d="M0.233,-0.259c0,0.017 0.003,0.033 0.009,0.048c0.007,0.014 0.015,0.026 0.025,0.037c0.011,0.011 0.023,0.019 0.037,0.025c0.015,0.006 0.03,0.009 0.046,0.009c0.016,0 0.031,-0.003 0.046,-0.009c0.014,-0.006 0.026,-0.014 0.037,-0.025c0.01,-0.011 0.018,-0.023 0.025,-0.037c0.006,-0.015 0.009,-0.03 0.009,-0.047c0,-0.016 -0.003,-0.031 -0.009,-0.045c-0.007,-0.015 -0.015,-0.027 -0.025,-0.038c-0.011,-0.011 -0.023,-0.019 -0.037,-0.025c-0.015,-0.006 -0.03,-0.009 -0.046,-0.009c-0.016,0 -0.031,0.003 -0.045,0.009c-0.015,0.006 -0.027,0.014 -0.037,0.025c-0.011,0.011 -0.019,0.023 -0.026,0.037c-0.006,0.014 -0.009,0.029 -0.009,0.045Zm-0.191,-0.002c-0,-0.038 0.008,-0.074 0.023,-0.106c0.015,-0.034 0.037,-0.062 0.064,-0.087c0.027,-0.024 0.06,-0.043 0.098,-0.057c0.037,-0.014 0.078,-0.021 0.123,-0.021c0.044,0 0.085,0.007 0.123,0.02c0.037,0.014 0.07,0.033 0.098,0.057c0.027,0.025 0.049,0.054 0.064,0.088c0.015,0.033 0.023,0.07 0.023,0.111c0,0.041 -0.008,0.078 -0.023,0.112c-0.016,0.033 -0.038,0.062 -0.065,0.087c-0.027,0.024 -0.06,0.043 -0.099,0.056c-0.038,0.013 -0.079,0.02 -0.124,0.02c-0.044,0 -0.085,-0.007 -0.122,-0.02c-0.037,-0.013 -0.07,-0.032 -0.097,-0.057c-0.027,-0.025 -0.048,-0.054 -0.063,-0.088c-0.015,-0.035 -0.023,-0.073 -0.023,-0.115Z" style="fill:#fff;fill-rule:nonzero;"/></g><g transform="matrix(279.985,0,0,279.985,1134.15,794.575)"><path d="M0.062,-0.513l0.181,0l0,0.063c0.049,-0.047 0.105,-0.071 0.166,-0.071c0.076,0 0.134,0.032 0.174,0.096c0.041,-0.065 0.099,-0.097 0.174,-0.097c0.024,0 0.047,0.003 0.068,0.01c0.021,0.007 0.04,0.018 0.055,0.033c0.015,0.015 0.027,0.035 0.036,0.059c0.009,0.024 0.014,0.053 0.014,0.087l-0,0.333l-0.181,-0l-0,-0.253c-0,-0.026 -0.002,-0.047 -0.006,-0.064c-0.003,-0.017 -0.009,-0.03 -0.016,-0.039c-0.007,-0.009 -0.015,-0.016 -0.024,-0.019c-0.009,-0.003 -0.019,-0.005 -0.03,-0.005c-0.058,-0 -0.087,0.042 -0.087,0.127l-0,0.253l-0.181,-0l-0,-0.253c-0,-0.026 -0.002,-0.048 -0.005,-0.065c-0.003,-0.017 -0.008,-0.03 -0.015,-0.04c-0.006,-0.01 -0.014,-0.017 -0.024,-0.021c-0.01,-0.003 -0.022,-0.005 -0.035,-0.005c-0.011,-0 -0.022,0.002 -0.032,0.005c-0.01,0.003 -0.019,0.01 -0.027,0.019c-0.007,0.01 -0.013,0.023 -0.018,0.04c-0.004,0.017 -0.006,0.04 -0.006,0.067l-0,0.253l-0.181,-0l-0,-0.513Z" style="fill:#fff;fill-rule:nonzero;"/></g><g transform="matrix(279.985,0,0,279.985,1400.7,794.575)"><path d="M0.23,-0.258c0,0.017 0.003,0.032 0.009,0.047c0.006,0.014 0.014,0.026 0.024,0.037c0.011,0.011 0.023,0.019 0.037,0.025c0.015,0.006 0.03,0.009 0.047,0.009c0.016,0 0.031,-0.003 0.046,-0.009c0.014,-0.006 0.026,-0.014 0.037,-0.025c0.01,-0.011 0.018,-0.023 0.025,-0.037c0.006,-0.014 0.009,-0.029 0.009,-0.045c0,-0.016 -0.003,-0.031 -0.009,-0.045c-0.007,-0.015 -0.015,-0.027 -0.025,-0.038c-0.011,-0.011 -0.023,-0.019 -0.037,-0.025c-0.015,-0.006 -0.03,-0.009 -0.046,-0.009c-0.017,0 -0.032,0.003 -0.046,0.009c-0.015,0.006 -0.027,0.014 -0.037,0.025c-0.011,0.011 -0.019,0.023 -0.025,0.036c-0.006,0.014 -0.009,0.029 -0.009,0.045Zm0.228,-0.255l0.182,-0l0,0.513l-0.182,-0l0,-0.057c-0.039,0.049 -0.091,0.073 -0.157,0.073c-0.037,-0 -0.072,-0.007 -0.103,-0.021c-0.031,-0.013 -0.059,-0.032 -0.082,-0.057c-0.023,-0.025 -0.042,-0.054 -0.055,-0.087c-0.013,-0.033 -0.019,-0.07 -0.019,-0.109c-0,-0.037 0.006,-0.072 0.019,-0.105c0.013,-0.033 0.03,-0.061 0.053,-0.086c0.023,-0.025 0.05,-0.044 0.081,-0.059c0.031,-0.014 0.066,-0.021 0.104,-0.021c0.064,-0 0.117,0.022 0.159,0.067l-0,-0.051Z" style="fill:#fff;fill-rule:nonzero;"/></g><g transform="matrix(279.985,0,0,279.985,1585.77,794.575)"><path d="M0.264,-0.362l0,0.362l-0.181,-0l-0,-0.362l-0.06,0l-0,-0.151l0.06,0l-0,-0.154l0.181,0l0,0.154l0.103,0l0,0.151l-0.103,0Z" style="fill:#fff;fill-rule:nonzero;"/></g><g transform="matrix(279.985,0,0,279.985,1679,794.575)"><path d="M0.086,-0.055c0,-0.018 0.007,-0.034 0.02,-0.047c0.014,-0.013 0.03,-0.02 0.048,-0.02c0.019,-0 0.035,0.007 0.048,0.02c0.013,0.013 0.02,0.029 0.02,0.048c0,0.019 -0.007,0.035 -0.02,0.048c-0.013,0.013 -0.029,0.02 -0.048,0.02c-0.019,-0 -0.035,-0.007 -0.048,-0.02c-0.013,-0.013 -0.02,-0.029 -0.02,-0.049Z" style="fill:#fff;fill-rule:nonzero;"/></g><g transform="matrix(279.985,0,0,279.985,1754.2,794.575)"><path d="M0.179,-0.476l0,0.476l-0.11,-0l0,-0.476l0.11,0Zm-0.126,-0.197c-0,-0.02 0.007,-0.036 0.021,-0.05c0.014,-0.014 0.03,-0.021 0.05,-0.021c0.02,-0 0.037,0.007 0.051,0.021c0.014,0.014 0.021,0.03 0.021,0.05c-0,0.02 -0.007,0.037 -0.021,0.051c-0.014,0.014 -0.031,0.021 -0.05,0.021c-0.02,-0 -0.037,-0.007 -0.051,-0.021c-0.014,-0.014 -0.021,-0.031 -0.021,-0.051Z" style="fill:#fff;fill-rule:nonzero;"/></g><g transform="matrix(279.985,0,0,279.985,1812.73,794.575)"><path d="M0.047,-0.241c-0,-0.069 0.024,-0.127 0.074,-0.176c0.049,-0.048 0.109,-0.072 0.179,-0.072c0.071,0 0.131,0.024 0.181,0.073c0.049,0.048 0.073,0.108 0.073,0.179c0,0.071 -0.024,0.131 -0.074,0.179c-0.049,0.048 -0.11,0.072 -0.182,0.072c-0.071,-0 -0.131,-0.025 -0.179,-0.074c-0.048,-0.048 -0.072,-0.108 -0.072,-0.181Zm0.112,0.002c0,0.047 0.013,0.085 0.038,0.113c0.026,0.028 0.061,0.042 0.103,0.042c0.043,-0 0.078,-0.014 0.103,-0.042c0.026,-0.028 0.039,-0.065 0.039,-0.111c-0,-0.046 -0.013,-0.083 -0.039,-0.111c-0.026,-0.028 -0.06,-0.042 -0.103,-0.042c-0.042,0 -0.076,0.014 -0.102,0.042c-0.026,0.028 -0.039,0.064 -0.039,0.109Z" style="fill:#fff;fill-rule:nonzero;"/></g></g><path d="M1095.16,23.437l0,1029.45c0,12.936 -10.502,23.438 -23.437,23.438c-12.936,-0 -23.438,-10.502 -23.438,-23.438l0,-1029.45c0,-12.935 10.502,-23.437 23.438,-23.437c12.935,0 23.437,10.502 23.437,23.437Z" style="fill:#3b82f6;"/></svg>